<svg id="visual" viewBox="0 0 1500 720" width="1500" height="720" xmlns="http://www.w3.org/2000/svg" xmlns:xlink="http://www.w3.org/1999/xlink" version="1.1"><rect x="0" y="0" width="1500" height="720" fill="#ffffff"></rect><path d="M707 0L683.5 30C660 60 613 120 568.7 180C524.3 240 482.7 300 554 360C625.3 420 809.7 480 867.5 540C925.3 600 856.7 660 822.3 690L788 720L0 720L0 690C0 660 0 600 0 540C0 480 0 420 0 360C0 300 0 240 0 180C0 120 0 60 0 30L0 0Z" fill="#98bca3" stroke-linecap="round" stroke-linejoin="miter"></path></svg>